<svg width="149" height="28" viewBox="0 0 149 28" fill="none" xmlns="http://www.w3.org/2000/svg">
<rect width="149" height="28" rx="14" fill="#0BD42B"/>
<path d="M38.9812 17V8.27273H44.7596V9.79403H40.8263V11.8736H44.3761V13.3949H40.8263V17H38.9812ZM47.7511 17.1236C47.3335 17.1236 46.9613 17.0511 46.6346 16.9062C46.3079 16.7585 46.0494 16.5412 45.859 16.2543C45.6715 15.9645 45.5778 15.6037 45.5778 15.1719C45.5778 14.8082 45.6445 14.5028 45.7781 14.2557C45.9116 14.0085 46.0934 13.8097 46.3235 13.6591C46.5536 13.5085 46.815 13.3949 47.1076 13.3182C47.4031 13.2415 47.7127 13.1875 48.0366 13.1562C48.4173 13.1165 48.7241 13.0795 48.957 13.0455C49.19 13.0085 49.359 12.9545 49.4641 12.8835C49.5692 12.8125 49.6218 12.7074 49.6218 12.5682V12.5426C49.6218 12.2727 49.5366 12.0639 49.3661 11.9162C49.1985 11.7685 48.9599 11.6946 48.6502 11.6946C48.3235 11.6946 48.0636 11.767 47.8704 11.9119C47.6772 12.054 47.5494 12.233 47.4869 12.4489L45.8079 12.3125C45.8931 11.9148 46.0607 11.571 46.3107 11.2812C46.5607 10.9886 46.8832 10.7642 47.2781 10.608C47.6758 10.4489 48.136 10.3693 48.6587 10.3693C49.0224 10.3693 49.3704 10.4119 49.7028 10.4972C50.038 10.5824 50.3349 10.7145 50.5934 10.8935C50.8548 11.0724 51.0607 11.3026 51.2113 11.5838C51.3619 11.8622 51.4371 12.196 51.4371 12.5852V17H49.7156V16.0923H49.6644C49.5593 16.2969 49.4187 16.4773 49.2425 16.6335C49.0664 16.7869 48.8548 16.9077 48.6076 16.9957C48.3604 17.081 48.0749 17.1236 47.7511 17.1236ZM48.271 15.8707C48.538 15.8707 48.7738 15.8182 48.9783 15.7131C49.1829 15.6051 49.3434 15.4602 49.4599 15.2784C49.5763 15.0966 49.6346 14.8906 49.6346 14.6605V13.9659C49.5778 14.0028 49.4996 14.0369 49.4002 14.0682C49.3036 14.0966 49.1942 14.1236 49.0721 14.1491C48.9499 14.1719 48.8278 14.1932 48.7056 14.2131C48.5835 14.2301 48.4727 14.2457 48.3732 14.2599C48.1602 14.2912 47.9741 14.3409 47.815 14.4091C47.6559 14.4773 47.5323 14.5696 47.4442 14.6861C47.3562 14.7997 47.3121 14.9418 47.3121 15.1122C47.3121 15.3594 47.4016 15.5483 47.5806 15.679C47.7624 15.8068 47.9925 15.8707 48.271 15.8707ZM55.8029 17.1278C55.1325 17.1278 54.5558 16.9858 54.0728 16.7017C53.5927 16.4148 53.2234 16.017 52.9648 15.5085C52.7092 15 52.5813 14.4148 52.5813 13.7528C52.5813 13.0824 52.7106 12.4943 52.9691 11.9886C53.2305 11.4801 53.6012 11.0838 54.0813 10.7997C54.5614 10.5128 55.1325 10.3693 55.7944 10.3693C56.3654 10.3693 56.8654 10.473 57.2944 10.6804C57.7234 10.8878 58.0629 11.179 58.3129 11.554C58.5629 11.929 58.7006 12.3693 58.7262 12.875H57.0131C56.9648 12.5483 56.837 12.2855 56.6296 12.0866C56.4251 11.8849 56.1566 11.7841 55.8242 11.7841C55.543 11.7841 55.2972 11.8608 55.087 12.0142C54.8796 12.1648 54.7177 12.3849 54.6012 12.6747C54.4847 12.9645 54.4265 13.3153 54.4265 13.7273C54.4265 14.1449 54.4833 14.5 54.5969 14.7926C54.7134 15.0852 54.8768 15.3082 55.087 15.4616C55.2972 15.6151 55.543 15.6918 55.8242 15.6918C56.0316 15.6918 56.2177 15.6491 56.3825 15.5639C56.5501 15.4787 56.6879 15.3551 56.7958 15.1932C56.9066 15.0284 56.979 14.831 57.0131 14.6009H58.7262C58.6978 15.1009 58.5614 15.5412 58.3171 15.9219C58.0756 16.2997 57.7418 16.5952 57.3157 16.8082C56.8896 17.0213 56.3853 17.1278 55.8029 17.1278ZM55.3768 16.9659H56.212L56.1438 17.3366C56.4364 17.3821 56.6751 17.4915 56.8597 17.6648C57.0472 17.8381 57.1424 18.0739 57.1452 18.3722C57.1481 18.7955 56.9521 19.1321 56.5572 19.3821C56.1623 19.6349 55.6083 19.7614 54.8952 19.7614L54.8782 18.9517C55.2362 18.9517 55.516 18.9077 55.7177 18.8196C55.9222 18.7344 56.0288 18.6009 56.0373 18.419C56.043 18.2457 55.9762 18.1136 55.837 18.0227C55.6978 17.9318 55.4805 17.8679 55.185 17.831L55.3768 16.9659ZM61.755 17.1236C61.3374 17.1236 60.9652 17.0511 60.6385 16.9062C60.3118 16.7585 60.0533 16.5412 59.8629 16.2543C59.6754 15.9645 59.5817 15.6037 59.5817 15.1719C59.5817 14.8082 59.6484 14.5028 59.782 14.2557C59.9155 14.0085 60.0973 13.8097 60.3274 13.6591C60.5575 13.5085 60.8189 13.3949 61.1115 13.3182C61.407 13.2415 61.7166 13.1875 62.0405 13.1562C62.4212 13.1165 62.728 13.0795 62.9609 13.0455C63.1939 13.0085 63.3629 12.9545 63.468 12.8835C63.5732 12.8125 63.6257 12.7074 63.6257 12.5682V12.5426C63.6257 12.2727 63.5405 12.0639 63.37 11.9162C63.2024 11.7685 62.9638 11.6946 62.6541 11.6946C62.3274 11.6946 62.0675 11.767 61.8743 11.9119C61.6811 12.054 61.5533 12.233 61.4908 12.4489L59.8118 12.3125C59.897 11.9148 60.0646 11.571 60.3146 11.2812C60.5646 10.9886 60.8871 10.7642 61.282 10.608C61.6797 10.4489 62.1399 10.3693 62.6626 10.3693C63.0263 10.3693 63.3743 10.4119 63.7067 10.4972C64.0419 10.5824 64.3388 10.7145 64.5973 10.8935C64.8587 11.0724 65.0646 11.3026 65.2152 11.5838C65.3658 11.8622 65.4411 12.196 65.4411 12.5852V17H63.7195V16.0923H63.6683C63.5632 16.2969 63.4226 16.4773 63.2464 16.6335C63.0703 16.7869 62.8587 16.9077 62.6115 16.9957C62.3643 17.081 62.0788 17.1236 61.755 17.1236ZM62.2749 15.8707C62.5419 15.8707 62.7777 15.8182 62.9822 15.7131C63.1868 15.6051 63.3473 15.4602 63.4638 15.2784C63.5803 15.0966 63.6385 14.8906 63.6385 14.6605V13.9659C63.5817 14.0028 63.5036 14.0369 63.4041 14.0682C63.3075 14.0966 63.1982 14.1236 63.076 14.1491C62.9538 14.1719 62.8317 14.1932 62.7095 14.2131C62.5874 14.2301 62.4766 14.2457 62.3771 14.2599C62.1641 14.2912 61.978 14.3409 61.8189 14.4091C61.6598 14.4773 61.5362 14.5696 61.4482 14.6861C61.3601 14.7997 61.3161 14.9418 61.3161 15.1122C61.3161 15.3594 61.4055 15.5483 61.5845 15.679C61.7663 15.8068 61.9964 15.8707 62.2749 15.8707ZM75.0728 12.321L73.4109 12.4233C73.3825 12.2812 73.3214 12.1534 73.2276 12.0398C73.1339 11.9233 73.0103 11.831 72.8569 11.7628C72.7063 11.6918 72.5259 11.6562 72.3157 11.6562C72.0344 11.6562 71.7972 11.7159 71.604 11.8352C71.4109 11.9517 71.3143 12.108 71.3143 12.304C71.3143 12.4602 71.3768 12.5923 71.5018 12.7003C71.6268 12.8082 71.8413 12.8949 72.1452 12.9602L73.3299 13.1989C73.9663 13.3295 74.4407 13.5398 74.7532 13.8295C75.0657 14.1193 75.2219 14.5 75.2219 14.9716C75.2219 15.4006 75.0955 15.777 74.8427 16.1009C74.5927 16.4247 74.2489 16.6776 73.8114 16.8594C73.3768 17.0384 72.8754 17.1278 72.3072 17.1278C71.4407 17.1278 70.7504 16.9474 70.2362 16.5866C69.7248 16.223 69.4251 15.7287 69.337 15.1037L71.1225 15.0099C71.1765 15.2741 71.3072 15.4759 71.5146 15.6151C71.7219 15.7514 71.9876 15.8196 72.3114 15.8196C72.6296 15.8196 72.8853 15.7585 73.0785 15.6364C73.2745 15.5114 73.3739 15.3509 73.3768 15.1548C73.3739 14.9901 73.3043 14.8551 73.168 14.75C73.0316 14.642 72.8214 14.5597 72.5373 14.5028L71.4038 14.277C70.7646 14.1491 70.2887 13.9276 69.9762 13.6122C69.6665 13.2969 69.5117 12.8949 69.5117 12.4062C69.5117 11.9858 69.6254 11.6236 69.8526 11.3196C70.0827 11.0156 70.4052 10.7812 70.82 10.6165C71.2376 10.4517 71.7262 10.3693 72.2859 10.3693C73.1126 10.3693 73.7631 10.544 74.2376 10.8935C74.7148 11.2429 74.9933 11.7187 75.0728 12.321ZM79.348 17.1278C78.6747 17.1278 78.0952 16.9915 77.6094 16.7188C77.1264 16.4432 76.7543 16.054 76.4929 15.5511C76.2315 15.0455 76.1009 14.4474 76.1009 13.7571C76.1009 13.0838 76.2315 12.4929 76.4929 11.9844C76.7543 11.4759 77.1222 11.0795 77.5966 10.7955C78.0739 10.5114 78.6335 10.3693 79.2756 10.3693C79.7074 10.3693 80.1094 10.4389 80.4815 10.5781C80.8565 10.7145 81.1832 10.9205 81.4616 11.196C81.7429 11.4716 81.9616 11.8182 82.1179 12.2358C82.2741 12.6506 82.3523 13.1364 82.3523 13.6932V14.1918H76.8253V13.0668H80.6435C80.6435 12.8054 80.5866 12.5739 80.473 12.3722C80.3594 12.1705 80.2017 12.0128 80 11.8991C79.8011 11.7827 79.5696 11.7244 79.3054 11.7244C79.0298 11.7244 78.7855 11.7884 78.5724 11.9162C78.3622 12.0412 78.1974 12.2102 78.0781 12.4233C77.9588 12.6335 77.8977 12.8679 77.8949 13.1264V14.196C77.8949 14.5199 77.9545 14.7997 78.0739 15.0355C78.196 15.2713 78.3679 15.4531 78.5895 15.581C78.8111 15.7088 79.0739 15.7727 79.3778 15.7727C79.5795 15.7727 79.7642 15.7443 79.9318 15.6875C80.0994 15.6307 80.2429 15.5455 80.3622 15.4318C80.4815 15.3182 80.5724 15.179 80.6349 15.0142L82.3139 15.125C82.2287 15.5284 82.054 15.8807 81.7898 16.1818C81.5284 16.4801 81.1903 16.7131 80.7756 16.8807C80.3636 17.0455 79.8878 17.1278 79.348 17.1278ZM87.7344 14.2131V10.4545H89.5497V17H87.8068V15.8111H87.7386C87.5909 16.1946 87.3452 16.5028 87.0014 16.7358C86.6605 16.9687 86.2443 17.0852 85.7528 17.0852C85.3153 17.0852 84.9304 16.9858 84.598 16.7869C84.2656 16.5881 84.0057 16.3054 83.8182 15.9389C83.6335 15.5724 83.5398 15.1335 83.5369 14.6222V10.4545H85.3523V14.2983C85.3551 14.6847 85.4588 14.9901 85.6634 15.2145C85.8679 15.4389 86.142 15.5511 86.4858 15.5511C86.7045 15.5511 86.9091 15.5014 87.0994 15.402C87.2898 15.2997 87.4432 15.1491 87.5597 14.9503C87.679 14.7514 87.7372 14.5057 87.7344 14.2131ZM93.8132 17V8.27273H97.2564C97.9183 8.27273 98.4822 8.39915 98.9482 8.65199C99.4141 8.90199 99.7692 9.25 100.013 9.69602C100.261 10.1392 100.384 10.6506 100.384 11.2301C100.384 11.8097 100.259 12.321 100.009 12.7642C99.7592 13.2074 99.397 13.5526 98.9226 13.7997C98.451 14.0469 97.88 14.1705 97.2095 14.1705H95.0149V12.6918H96.9112C97.2663 12.6918 97.5589 12.6307 97.7891 12.5085C98.022 12.3835 98.1953 12.2116 98.3089 11.9929C98.4254 11.7713 98.4837 11.517 98.4837 11.2301C98.4837 10.9403 98.4254 10.6875 98.3089 10.4716C98.1953 10.2528 98.022 10.0838 97.7891 9.96449C97.5561 9.84233 97.2607 9.78125 96.9027 9.78125H95.6584V17H93.8132ZM104.426 17.1278C103.753 17.1278 103.173 16.9915 102.688 16.7188C102.205 16.4432 101.832 16.054 101.571 15.5511C101.31 15.0455 101.179 14.4474 101.179 13.7571C101.179 13.0838 101.31 12.4929 101.571 11.9844C101.832 11.4759 102.2 11.0795 102.675 10.7955C103.152 10.5114 103.712 10.3693 104.354 10.3693C104.786 10.3693 105.188 10.4389 105.56 10.5781C105.935 10.7145 106.261 10.9205 106.54 11.196C106.821 11.4716 107.04 11.8182 107.196 12.2358C107.352 12.6506 107.43 13.1364 107.43 13.6932V14.1918H101.903V13.0668H105.722C105.722 12.8054 105.665 12.5739 105.551 12.3722C105.438 12.1705 105.28 12.0128 105.078 11.8991C104.879 11.7827 104.648 11.7244 104.384 11.7244C104.108 11.7244 103.864 11.7884 103.651 11.9162C103.44 12.0412 103.276 12.2102 103.156 12.4233C103.037 12.6335 102.976 12.8679 102.973 13.1264V14.196C102.973 14.5199 103.033 14.7997 103.152 15.0355C103.274 15.2713 103.446 15.4531 103.668 15.581C103.889 15.7088 104.152 15.7727 104.456 15.7727C104.658 15.7727 104.842 15.7443 105.01 15.6875C105.178 15.6307 105.321 15.5455 105.44 15.4318C105.56 15.3182 105.651 15.179 105.713 15.0142L107.392 15.125C107.307 15.5284 107.132 15.8807 106.868 16.1818C106.607 16.4801 106.268 16.7131 105.854 16.8807C105.442 17.0455 104.966 17.1278 104.426 17.1278ZM111.027 17.1065C110.53 17.1065 110.08 16.9787 109.676 16.723C109.276 16.4645 108.957 16.0852 108.722 15.5852C108.489 15.0824 108.372 14.4659 108.372 13.7358C108.372 12.9858 108.493 12.3622 108.734 11.8651C108.976 11.3651 109.297 10.9915 109.697 10.7443C110.101 10.4943 110.543 10.3693 111.023 10.3693C111.389 10.3693 111.695 10.4318 111.939 10.5568C112.186 10.679 112.385 10.8324 112.536 11.017C112.689 11.1989 112.805 11.3778 112.885 11.554H112.94V8.27273H114.751V17H112.962V15.9517H112.885C112.8 16.1335 112.679 16.3139 112.523 16.4929C112.369 16.669 112.169 16.8153 111.922 16.9318C111.678 17.0483 111.379 17.1065 111.027 17.1065ZM111.602 15.6619C111.895 15.6619 112.142 15.5824 112.344 15.4233C112.548 15.2614 112.705 15.0355 112.812 14.7457C112.923 14.456 112.979 14.1165 112.979 13.7273C112.979 13.3381 112.925 13 112.817 12.7131C112.709 12.4261 112.553 12.2045 112.348 12.0483C112.143 11.892 111.895 11.8139 111.602 11.8139C111.304 11.8139 111.053 11.8949 110.848 12.0568C110.643 12.2187 110.489 12.4432 110.384 12.7301C110.278 13.017 110.226 13.3494 110.226 13.7273C110.226 14.108 110.278 14.4446 110.384 14.7372C110.491 15.027 110.646 15.2543 110.848 15.419C111.053 15.581 111.304 15.6619 111.602 15.6619ZM116.244 17V10.4545H118.059V17H116.244ZM117.156 9.6108C116.886 9.6108 116.654 9.52131 116.461 9.34233C116.271 9.16051 116.176 8.94318 116.176 8.69034C116.176 8.44034 116.271 8.22585 116.461 8.04688C116.654 7.86506 116.886 7.77415 117.156 7.77415C117.426 7.77415 117.656 7.86506 117.846 8.04688C118.039 8.22585 118.136 8.44034 118.136 8.69034C118.136 8.94318 118.039 9.16051 117.846 9.34233C117.656 9.52131 117.426 9.6108 117.156 9.6108ZM121.925 17.1065C121.428 17.1065 120.978 16.9787 120.575 16.723C120.174 16.4645 119.856 16.0852 119.62 15.5852C119.387 15.0824 119.271 14.4659 119.271 13.7358C119.271 12.9858 119.391 12.3622 119.633 11.8651C119.874 11.3651 120.195 10.9915 120.596 10.7443C120.999 10.4943 121.441 10.3693 121.921 10.3693C122.288 10.3693 122.593 10.4318 122.837 10.5568C123.085 10.679 123.283 10.8324 123.434 11.017C123.587 11.1989 123.704 11.3778 123.783 11.554H123.839V8.27273H125.65V17H123.86V15.9517H123.783C123.698 16.1335 123.577 16.3139 123.421 16.4929C123.268 16.669 123.067 16.8153 122.82 16.9318C122.576 17.0483 122.278 17.1065 121.925 17.1065ZM122.501 15.6619C122.793 15.6619 123.04 15.5824 123.242 15.4233C123.447 15.2614 123.603 15.0355 123.711 14.7457C123.822 14.456 123.877 14.1165 123.877 13.7273C123.877 13.3381 123.823 13 123.715 12.7131C123.607 12.4261 123.451 12.2045 123.246 12.0483C123.042 11.892 122.793 11.8139 122.501 11.8139C122.202 11.8139 121.951 11.8949 121.746 12.0568C121.542 12.2187 121.387 12.4432 121.282 12.7301C121.177 13.017 121.124 13.3494 121.124 13.7273C121.124 14.108 121.177 14.4446 121.282 14.7372C121.39 15.027 121.545 15.2543 121.746 15.419C121.951 15.581 122.202 15.6619 122.501 15.6619ZM130.1 17.1278C129.438 17.1278 128.865 16.9872 128.382 16.706C127.902 16.4219 127.532 16.027 127.27 15.5213C127.009 15.0128 126.878 14.4233 126.878 13.7528C126.878 13.0767 127.009 12.4858 127.27 11.9801C127.532 11.4716 127.902 11.0767 128.382 10.7955C128.865 10.5114 129.438 10.3693 130.1 10.3693C130.762 10.3693 131.333 10.5114 131.813 10.7955C132.296 11.0767 132.668 11.4716 132.929 11.9801C133.191 12.4858 133.321 13.0767 133.321 13.7528C133.321 14.4233 133.191 15.0128 132.929 15.5213C132.668 16.027 132.296 16.4219 131.813 16.706C131.333 16.9872 130.762 17.1278 130.1 17.1278ZM130.108 15.7216C130.409 15.7216 130.661 15.6364 130.863 15.4659C131.064 15.2926 131.216 15.0568 131.319 14.7585C131.424 14.4602 131.476 14.1207 131.476 13.7401C131.476 13.3594 131.424 13.0199 131.319 12.7216C131.216 12.4233 131.064 12.1875 130.863 12.0142C130.661 11.8409 130.409 11.7543 130.108 11.7543C129.804 11.7543 129.549 11.8409 129.341 12.0142C129.137 12.1875 128.982 12.4233 128.877 12.7216C128.775 13.0199 128.723 13.3594 128.723 13.7401C128.723 14.1207 128.775 14.4602 128.877 14.7585C128.982 15.0568 129.137 15.2926 129.341 15.4659C129.549 15.6364 129.804 15.7216 130.108 15.7216Z" fill="white"/>
<path d="M23.9031 7.17969C22.5938 5.77344 20.85 5 18.9969 5C15.1719 5 12.0594 8.33482 12.0594 12.433C12.0594 13.7422 12.3781 15.0212 12.9844 16.1496L12 20L15.6781 18.9654C16.6906 19.558 17.8313 19.8694 18.9938 19.8694H18.9969C22.8188 19.8694 26 16.5346 26 12.4364C26 10.4509 25.2125 8.58594 23.9031 7.17969ZM18.9969 18.6172C17.9594 18.6172 16.9437 18.3192 16.0594 17.7567L15.85 17.6228L13.6688 18.2355L14.25 15.9554L14.1125 15.721C13.5344 14.7366 13.2313 13.6016 13.2313 12.433C13.2313 9.0279 15.8187 6.25558 19 6.25558C20.5406 6.25558 21.9875 6.89844 23.075 8.06696C24.1625 9.23549 24.8313 10.7857 24.8281 12.4364C24.8281 15.8449 22.175 18.6172 18.9969 18.6172ZM22.1594 13.99C21.9875 13.8962 21.1344 13.4475 20.975 13.3873C20.8156 13.3237 20.7 13.2935 20.5844 13.481C20.4688 13.6685 20.1375 14.0837 20.0344 14.2109C19.9344 14.3348 19.8313 14.3516 19.6594 14.2578C18.6406 13.7121 17.9719 13.2835 17.3 12.048C17.1219 11.7199 17.4781 11.7433 17.8094 11.0335C17.8656 10.9096 17.8375 10.8025 17.7937 10.7087C17.75 10.615 17.4031 9.70089 17.2594 9.32924C17.1188 8.96763 16.975 9.01786 16.8688 9.01116C16.7688 9.00446 16.6531 9.00446 16.5375 9.00446C16.4219 9.00446 16.2344 9.05134 16.075 9.23549C15.9156 9.42299 15.4688 9.87165 15.4688 10.7857C15.4688 11.6998 16.0906 12.5837 16.175 12.7076C16.2625 12.8315 17.3969 14.7065 19.1375 15.5134C20.2375 16.0223 20.6687 16.0658 21.2188 15.9788C21.5531 15.9252 22.2437 15.5301 22.3875 15.0949C22.5312 14.6596 22.5312 14.2879 22.4875 14.2109C22.4469 14.1272 22.3313 14.0804 22.1594 13.99Z" fill="white"/>
</svg>
