<svg width="36" height="33" viewBox="0 0 36 33" fill="none" xmlns="http://www.w3.org/2000/svg">
<path d="M33.7865 11.8357L33.7864 11.8357L33.7891 11.8456C33.7934 11.8619 33.8 11.8937 33.8 11.9993C33.8 12.6161 33.2898 13.1429 32.6175 13.1429H3.3825C2.71022 13.1429 2.2 12.6161 2.2 11.9993C2.2 11.9402 2.20544 11.8826 2.21914 11.814C2.40794 11.0886 3.22556 8.39776 5.525 5.88902C7.81875 3.38649 11.6431 1 18 1C24.3569 1 28.1812 3.38649 30.475 5.88902C32.798 8.42347 33.6087 11.1438 33.7865 11.8357ZM10.6 7.07143C10.6 6.48776 10.3638 5.93172 9.94924 5.52461C9.53533 5.11809 8.97772 4.89286 8.4 4.89286C7.82228 4.89286 7.26467 5.11809 6.85076 5.5246C6.43625 5.93172 6.2 6.48776 6.2 7.07143C6.2 7.6551 6.43625 8.21114 6.85076 8.61825C7.26467 9.02477 7.82228 9.25 8.4 9.25C8.97772 9.25 9.53533 9.02477 9.94924 8.61825C10.3638 8.21114 10.6 7.6551 10.6 7.07143ZM27.6 9.25C28.1777 9.25 28.7353 9.02477 29.1492 8.61825C29.5638 8.21113 29.8 7.65509 29.8 7.07143C29.8 6.48776 29.5638 5.93172 29.1492 5.5246C28.7353 5.11809 28.1777 4.89286 27.6 4.89286C27.0223 4.89286 26.4647 5.11809 26.0508 5.5246C25.6362 5.93172 25.4 6.48776 25.4 7.07143C25.4 7.65509 25.6362 8.21113 26.0508 8.61825C26.4647 9.02477 27.0223 9.25 27.6 9.25ZM20.2 4.71429C20.2 4.13062 19.9638 3.57458 19.5492 3.16746C19.1353 2.76095 18.5777 2.53571 18 2.53571C17.4223 2.53571 16.8647 2.76095 16.4508 3.16746C16.0362 3.57458 15.8 4.13062 15.8 4.71429C15.8 5.29795 16.0362 5.85399 16.4508 6.26111C16.8647 6.66762 17.4223 6.89286 18 6.89286C18.5777 6.89286 19.1353 6.66763 19.5492 6.26111C19.9638 5.85399 20.2 5.29795 20.2 4.71429ZM1 20.0357C1 18.6529 2.14772 17.5 3.6 17.5H32.4C33.8523 17.5 35 18.6529 35 20.0357C35 21.4185 33.8523 22.5714 32.4 22.5714H3.6C2.14772 22.5714 1 21.4185 1 20.0357ZM2.2 27.1071C2.2 27.0281 2.27522 26.9286 2.4 26.9286H33.6C33.7248 26.9286 33.8 27.0281 33.8 27.1071V28.2857C33.8 30.3167 32.1123 32 30 32H6C3.88772 32 2.2 30.3167 2.2 28.2857V27.1071Z" fill="#FFD704" stroke="black" stroke-width="2"/>
</svg>
